<?xml version="1.0" standalone="no"?>
<!DOCTYPE svg PUBLIC "-//W3C//DTD SVG 20010904//EN"
 "http://www.w3.org/TR/2001/REC-SVG-20010904/DTD/svg10.dtd">
<svg version="1.0" xmlns="http://www.w3.org/2000/svg"
 width="850.000000pt" height="850.000000pt" viewBox="0 0 850.000000 850.000000"
 preserveAspectRatio="xMidYMid meet">
<metadata>
Created by potrace 1.11, written by Peter Selinger 2001-2013
</metadata>
<g transform="translate(0.000000,850.000000) scale(0.100000,-0.100000)"
fill="#000000" stroke="none">
<path d="M4770 7273 c-279 -44 -525 -147 -751 -314 -43 -33 -81 -59 -83 -59
-24 0 -347 -326 -425 -430 -35 -47 -68 -84 -73 -82 -5 1 -7 -2 -3 -8 3 -5 -2
-22 -13 -38 -27 -37 -88 -161 -112 -225 -36 -96 -50 -179 -50 -298 0 -223 64
-383 215 -535 103 -104 147 -135 294 -208 251 -125 457 -170 846 -186 321 -13
459 -35 608 -96 159 -64 325 -193 410 -318 134 -197 195 -471 175 -779 -24
-366 -205 -711 -517 -984 -331 -290 -749 -433 -1267 -433 -317 -1 -551 51
-774 172 -160 87 -307 220 -383 349 -121 205 -133 508 -30 714 14 27 31 53 37
57 6 4 7 8 3 8 -12 0 45 78 107 147 31 33 56 70 56 81 0 44 -10 52 -62 52 -42
0 -58 -6 -97 -34 -55 -41 -125 -113 -174 -178 -19 -26 -38 -45 -41 -42 -3 2
-4 1 -2 -2 3 -3 -6 -23 -18 -43 -13 -20 -38 -66 -56 -101 -18 -36 -38 -68 -44
-72 -6 -4 -8 -8 -5 -8 4 0 -10 -49 -31 -109 -53 -148 -70 -248 -70 -401 0
-216 59 -390 188 -551 187 -236 471 -402 776 -454 183 -31 495 -16 730 35 246
54 554 183 744 312 24 16 48 26 55 22 6 -4 9 -4 5 1 -4 4 46 47 111 95 141
106 290 239 427 383 69 72 105 103 113 96 7 -6 8 -5 2 2 -7 8 17 43 71 107 90
107 187 235 225 300 15 25 30 39 36 35 7 -3 9 -3 5 1 -3 4 20 59 53 122 64
126 116 275 149 429 27 126 39 459 21 587 -67 463 -310 758 -744 903 -196 65
-327 83 -757 105 -278 14 -434 50 -635 150 -115 58 -239 145 -229 162 4 6 3 8
-4 4 -13 -8 -84 73 -75 87 3 6 1 7 -5 3 -11 -7 -17 6 -13 27 1 5 -3 6 -7 3
-12 -7 -57 93 -72 159 -17 71 -14 219 5 290 19 71 82 192 132 254 63 76 207
211 226 211 3 0 17 10 31 23 33 31 175 100 256 126 98 31 184 43 300 43 215 0
406 -74 605 -233 112 -89 176 -174 189 -249 6 -37 -8 -67 -87 -178 -33 -47
-30 -78 10 -93 53 -20 78 -11 130 44 96 102 168 229 228 404 36 103 33 218 -8
304 -24 50 -113 167 -128 168 -4 1 -33 18 -65 40 -73 47 -186 94 -281 115 -67
15 -310 21 -383 9z"/>
</g>
</svg>
